<?xml version="1.0" encoding="UTF-8"?>
<svg id="Layer_1" data-name="Layer 1" xmlns="http://www.w3.org/2000/svg" version="1.1" viewBox="0 0 500 500">
  <defs>
    <style>
      .cls-1 {
        fill: #fff;
        stroke-width: 0px;
      }
    </style>
  </defs>
  <path class="cls-1" d="M70.06,499.58V.1h6.09c59.29,0,118.58-.26,177.87.08,52.34.3,93.29,22.52,119.36,67.98,23.42,40.84,23.95,83.46,2.42,125.79-7.16,14.07-16.95,26.14-28.79,36.56-1.11.98-2.17,2.03-3.21,3.1-.22.23-.24.66.04-.19,14.16,4.68,28.79,8.21,42.32,14.22,53.38,23.73,83.8,81.09,74.47,138.79-10.48,64.84-64.24,112.58-129.68,113.17-86.05.77-172.11.21-258.16.22-.72,0-1.45-.12-2.73-.23ZM105.85,463.95c1.14.1,1.69.18,2.24.18,73.4,0,146.8.15,220.19-.19,9.53-.04,19.33-1.6,28.51-4.2,56.15-15.88,86.53-78.59,61.12-134.42-17.34-38.11-48.84-57.09-90.56-57.37-72.65-.48-145.3-.14-217.95-.14-1.07,0-2.14,0-3.56,0v196.14ZM105.89,35.79v196.04c.91.14,1.44.3,1.98.3,49.98,0,99.96.11,149.94-.09,22.22-.09,42.41-6.84,59.98-20.6,36.03-28.2,47.6-75.58,29.54-116.39-17.33-39.16-49.19-58.88-92.24-59.2-41.8-.3-83.61-.07-125.41-.07-7.78,0-15.56,0-23.78,0Z"/>
</svg>