<?xml version="1.0" encoding="UTF-8"?>
<svg id="Layer_1" data-name="Layer 1" xmlns="http://www.w3.org/2000/svg" version="1.1" viewBox="0 0 500 500">
  <defs>
    <style>
      .cls-1 {
        fill: #fff;
        stroke-width: 0px;
      }
    </style>
  </defs>
  <g id="trtJ7u.tif">
    <g>
      <path class="cls-1" d="M136.43,367.05c-3.57,3.82-6.7,7.07-9.73,10.42-4.24,4.69-9.47,6.71-15.77,6.69-30.27-.08-60.54-.11-90.81,0-7.99.03-13.94-3.07-17.07-10.4-3.2-7.5-.59-13.91,4.88-19.41,17.8-17.88,35.6-35.76,53.45-53.58,1.33-1.33,3.1-2.2,4.79-3.37-5.96-7.25-5.88-13.91-3.96-21.26,6.59-25.18,12.7-50.49,19.21-75.69,1-3.87.24-6.27-2.69-8.96-8.08-7.43-8.19-17.98-.39-25.77C131.86,112.24,185.43,58.78,239.02,5.35c6.86-6.84,17.2-7.1,23.46-.91,7.29,7.2,7.27,16.98-.25,24.51-48.29,48.4-96.61,96.77-144.96,145.1-1.46,1.46-3.46,2.37-5.25,3.57,48.26,48.26,95.31,95.31,143.57,143.56,1.19-1.78,2.1-3.78,3.55-5.24,70.55-70.66,141.16-141.27,211.75-211.89,6.24-6.24,14.11-8.08,20.84-4.87,5.75,2.74,10.53,9.93,8.97,16.23-1.18,4.75-4,9.68-7.45,13.19-28.19,28.64-56.71,56.96-85.12,85.37-46.62,46.62-93.27,93.21-139.82,139.9-5.07,5.08-10.79,7.95-17.79,5.85-3.31-.99-6.65-3.16-9.03-5.69-2.84-3.02-5.4-3.29-9.15-2.32-25.22,6.47-50.52,12.61-75.73,19.13-7.13,1.85-13.71,2.3-20.2-3.78ZM109.85,224.12c-4.51,17.67-9.11,35.43-13.44,53.24-.34,1.4.76,3.67,1.91,4.82,17.5,17.68,35.07,35.28,52.8,52.73,1.27,1.25,4,1.9,5.8,1.55,6.97-1.36,13.85-3.23,20.75-4.94,10.67-2.65,21.33-5.34,31.57-7.91-33.21-33.25-66.21-66.28-99.39-99.5ZM112.27,343.85c-7.83-7.64-15.69-15.32-22.79-22.25-9.57,9.56-19.32,19.3-29.2,29.18,12.14,0,24.57-.34,36.96.14,6.45.25,11.61-.87,15.03-7.07Z"/>
      <path class="cls-1" d="M250.53,500c-77.41,0-154.82,0-232.23,0-11.23,0-18.22-6.94-18.25-18.23-.06-21.22-.06-42.45,0-63.67.03-11.3,6.94-18.22,18.26-18.22,77.58,0,155.17.07,232.75.07s152.73-.06,229.1-.09c14.88,0,20.88,6,20.88,20.85,0,20.18.03,40.36-.01,60.54-.02,11.97-6.79,18.74-18.79,18.74-77.24.02-154.47.01-231.71.01ZM467.5,433.57H33.66v32.79h433.84v-32.79Z"/>
    </g>
  </g>
</svg>