<?xml version="1.0" encoding="UTF-8"?>
<svg id="Layer_1" data-name="Layer 1" xmlns="http://www.w3.org/2000/svg" version="1.1" viewBox="0 0 500 500">
  <defs>
    <style>
      .cls-1 {
        fill: #fff;
        stroke-width: 0px;
      }
    </style>
  </defs>
  <path class="cls-1" d="M306.68,35.27h-76.33V0h196.09v35.37c-17.59,0-35.04,0-52.49,0-7.63,0-28.93.02-28.93.02,0,0-34.69,95.72-51.16,140.87-14.71,40.32-29.56,80.59-44.23,120.92-19.9,54.71-39.68,109.47-59.5,164.21-.3.84-1.01,3.04-1.01,3.04,25.39,0,50.83.05,76.31.05v35.52H69.39v-35.44h5.88c23.09,0,46.19-.12,69.28.1,4.53.04,6.72-1.11,8.36-5.66,23.68-65.67,47.58-131.26,71.46-196.87,26.84-73.74,53.7-147.47,80.54-221.21.56-1.55.99-3.14,1.77-5.66Z"/>
</svg>