<?xml version="1.0" encoding="UTF-8"?>
<svg id="Layer_1" data-name="Layer 1" xmlns="http://www.w3.org/2000/svg" viewBox="0 0 307.79 391.7">
  <defs>
    <style>
      .cls-1 {
        fill: #fff;
        stroke-width: 0px;
      }
    </style>
  </defs>
  <path class="cls-1" d="M55.59,391.55v-55.74H0V0h251.54v55.47h56.19v5.09c0,82.96-.02,165.91.06,248.87,0,3.02-.86,5.12-3,7.23-24.34,24.11-48.56,48.34-72.93,72.44-1.37,1.35-3.68,2.49-5.55,2.49-55.85.13-111.7.11-167.55.1-.85,0-1.71-.08-3.18-.15h.01ZM83.95,83.82v279.57h125.91v-69.75h69.66V83.82H83.95ZM55.85,307.6V55.6h167.58v-27.59H28.02v279.59h27.83ZM237.96,321.85v19.59c6.44-6.19,13.43-12.91,20.38-19.59h-20.38,0Z"/>
  <path class="cls-1" d="M237.96,321.85h20.38c-6.95,6.68-13.95,13.4-20.38,19.59v-19.59h0Z"/>
  <path class="cls-1" d="M111.88,153.4v-27.46h139.48v27.46H111.88Z"/>
  <path class="cls-1" d="M251.39,209.52H111.94v-27.47h139.46v27.47h-.01Z"/>
  <path class="cls-1" d="M111.9,265.47v-27.45h139.52v27.45H111.9Z"/>
  <path class="cls-1" d="M111.9,321.4v-27.47h69.46v27.47h-69.46Z"/>
</svg>