<?xml version="1.0" encoding="UTF-8"?>
<svg id="Layer_1" data-name="Layer 1" xmlns="http://www.w3.org/2000/svg" version="1.1" viewBox="0 0 311.3 391.7">
  <defs>
    <style>
      .cls-1 {
        fill: #fff;
        stroke-width: 0px;
      }
    </style>
  </defs>
  <path class="cls-1" d="M55.6,391.5v-55.7H0V0h251.5v55.5h56.2v254c0,3-.9,5.1-3,7.2-24.3,24.1-48.6,48.3-72.9,72.4-1.4,1.4-3.7,2.5-5.6,2.5-55.8.1-111.7.1-167.6.1s-1.7,0-3.2-.1h.2,0ZM83.9,83.8v279.6h125.9v-69.8h69.7V83.8H83.9ZM55.8,307.6V55.6h167.6v-27.6H28v279.6h27.8ZM238,321.9v19.6c6.4-6.2,13.4-12.9,20.4-19.6h-20.4Z"/>
  <path class="cls-1" d="M111.9,153.4v-27.5h139.5v27.5H111.9Z"/>
  <path class="cls-1" d="M251.4,209.5H111.9v-27.5h139.5v27.5h0Z"/>
  <path class="cls-1" d="M111.9,265.5v-27.4h139.5v27.4H111.9Z"/>
  <path class="cls-1" d="M111.9,321.4v-27.5h69.5v27.5s-69.5,0-69.5,0Z"/>
</svg>