<?xml version="1.0" encoding="UTF-8"?>
<svg id="Layer_1" data-name="Layer 1" xmlns="http://www.w3.org/2000/svg" version="1.1" viewBox="0 0 500 500">
  <defs>
    <style>
      .cls-1 {
        fill: #fff;
        stroke-width: 0px;
      }
    </style>
  </defs>
  <path class="cls-1" d="M446.26,393.53v106.47H53.74v-106.47h392.52ZM321.17,429.17H89.64v35.18h231.53v-35.18h0ZM357.41,464.29h53.09v-35.07h-53.09v35.07Z"/>
  <path class="cls-1" d="M398.85,357.39c-12.21,0-23.55.12-34.88-.15-1.41-.03-3.51-1.83-4.04-3.27-11.75-31.83-23.37-63.71-34.91-95.61-2.93-8.1-2.77-8.16-11.37-8.16-43.35,0-86.7.06-130.04-.09-4.07,0-6.08.87-7.57,5.04-11.6,32.46-23.58,64.79-35.28,97.21-1.29,3.57-2.7,5.29-6.91,5.14-10.58-.37-21.19-.12-32.63-.12.72-2.29,1.22-4.14,1.87-5.94C145.12,235.96,187.19,120.48,229.11,4.95c1.39-3.83,3.17-5.06,7.15-4.94,9.48.29,18.98.2,28.46.02,3.02-.06,4.54.71,5.65,3.79,30.45,84.12,61.01,168.19,91.59,252.26,11.5,31.62,23.11,63.19,34.67,94.79.69,1.89,1.3,3.8,2.22,6.52h0ZM250.63,54.07c-.44.02-.88.04-1.33.07-19.42,53.26-38.85,106.52-58.37,160.05h117.84c-19.53-53.77-38.83-106.94-58.14-160.11h0Z"/>
</svg>