<?xml version="1.0" encoding="UTF-8"?>
<svg id="Layer_1" data-name="Layer 1" xmlns="http://www.w3.org/2000/svg" version="1.1" viewBox="0 0 500 500">
  <defs>
    <style>
      .cls-1 {
        fill: #fff;
        stroke-width: 0px;
      }
    </style>
  </defs>
  <path class="cls-1" d="M53.33,0h35.77c0,2.43,0,4.61,0,6.79,0,67.95.08,135.9-.02,203.85-.06,38.32,10.56,73.04,34.51,103.24,25.73,32.45,59.15,52.23,100.03,58.88,40.8,6.64,79.07-.9,113.75-23.43,39.69-25.79,63.66-62.42,71.12-109.27,1.89-11.88,2.42-24.08,2.45-36.13.19-65.53.02-131.06-.02-196.59,0-2.21,0-4.43,0-7.12h35.83c0,11.52,0,23.01,0,34.49-.02,58.64,0,117.28-.08,175.92-.07,54.59-18.15,102.22-56.47,141.35-30.92,31.57-68.58,50.64-112.53,56.68-49.01,6.74-94.41-3.41-135.85-30.27-19.82-12.85-36.61-29.16-50.6-48.32-25.44-34.86-37.61-74.06-37.79-116.93-.29-69.62-.08-139.25-.08-208.88,0-1.27,0-2.54,0-4.26Z"/>
  <path class="cls-1" d="M446.41,464.9v35.1H53.77v-35.1h392.63Z"/>
</svg>